Patient4_TMGait_0pt4_03_left_05_EMG.mot
version=1
nRows=40
nColumns=33
inDegrees=no
endheader
time	1LAddLong	2LGlutMax	3LGlutMed	4LIliopsoas	5LSemiMemb	6LBicFemLong	7LRecFem	8LVastMed	9LVastLat	10LGasMed	11LTibAnt	12lTibPost	13LPeroneusLong	14LSol	15LExtDigLong	16LFlexDigLong	17RAddLong	18RGlutMax	19RGlutMed	20RIliopsoas	21RSemiMemb	22RBicFemLong	23RRecFem	24RVastMed	25RVastLat	26RGasMed	27RTibAnt	28RTibPost	29RPeroneusLong	30RSol	31RExtDigLong	32RFlexDigLong
6.565	-0.062256	-0.10132	0.08667	0.00351	-0.09079	0.42038	-0.44098	0.001068	0.20172	-0.038452	0.053253	-0.073853	0.041504	0.072327	-0.032349	-0.010681	0.10864	0.30441	-0.32638	-0.14053	-0.055847	-0.003357	0.48187	-0.00946	-0.055389	-0.006561	-0.10407	-0.004883	0.31052	-0.050049	-0.002441	-0.026093
6.566	-0.010681	-0.14267	0.047302	0.006409	-0.11322	0.26382	-0.36911	-0.019073	0.13275	-0.001526	0.019989	-0.035553	0.075378	0.079956	-0.051575	0.1648	0.080109	0.34637	-0.12009	0.030518	-0.065002	0.043182	0.45181	0.033264	-0.03479	-0.006561	-0.22614	-0.005493	0.2095	-0.009003	-0.002136	-0.020599
6.567	0.015411	-0.18249	-0.18219	0.001068	-0.055084	0.1152	-0.2684	-0.019989	-0.007629	0.062866	0.048523	-0.007477	-0.020142	0.073853	-0.002747	0.12909	0.04303	0.3241	-0.20126	0.25787	-0.059814	0.079956	0.37582	0.053558	-0.025024	-0.01358	-0.16754	-0.001068	0.10498	0.10361	-0.001068	-0.023346
6.568	0.019836	-0.12634	-0.27649	0.010834	0.022278	0.21805	-0.21255	-0.016937	-0.090637	0.13855	0.13626	0.001678	-0.087433	0.044861	-0.070038	0.1358	-0.014343	0.36972	-0.26871	0.15656	-0.036011	0.070953	0.28961	0.086517	-0.014343	-0.011749	0.16312	-0.002899	-0.028076	0.099182	-0.001526	-0.02655
6.569	0.025482	-0.062561	-0.16235	0.026245	0.024414	0.060577	-0.19974	-0.00946	-0.17792	0.04303	0.12848	-0.000763	-0.15549	0.15472	-0.11795	0.080109	-0.052948	0.38284	-0.16083	0.037231	-0.035706	0.061035	0.31143	0.06424	-0.020905	-0.001221	0.69366	-0.002747	-0.17258	0.001678	0.000916	-0.02533
6.57	0.021362	-0.024567	-0.049438	0.002289	0.059204	-0.077209	-0.20844	-0.007629	-0.21622	-0.16647	0.13825	-0.02594	-0.16007	0.017853	-0.10193	-0.01236	-0.054169	0.28503	-0.13702	-0.023041	-0.05249	0.033722	0.3447	0.056458	-0.037994	0.001526	0.86838	-0.009308	-0.16556	-0.039063	-0.001373	-0.014648
6.571	0.018158	-0.019836	-0.032196	0.001678	0.051422	-0.28763	-0.19882	-0.007324	-0.13718	-0.18723	0.15442	0.023193	-0.059509	-0.092773	-0.070496	-0.046539	-0.038757	0.25833	-0.075989	-0.051727	-0.057678	0.042419	0.35339	0.044098	-0.026093	0.001984	0.50384	-0.00351	-0.065765	0.015717	-0.001831	-0.016174
6.572	0.013275	-0.035706	-0.036926	0.000305	0.00473	-0.4216	-0.17288	-0.005341	0.001678	-0.11734	-0.053406	-0.030518	0.061035	-0.15137	0.05127	-0.033264	-0.061188	0.21652	-0.072784	-0.036011	-0.070801	0.05249	0.37384	0.0383	-0.011902	0.000458	0.19898	-0.002289	-0.074158	-0.001831	-0.001526	-0.017395
6.573	0.001831	-0.005493	-0.10788	0.010071	-0.031281	-0.3627	-0.3389	0.010376	0.07843	0.006866	-0.15656	-0.019226	0.042877	-0.012207	0.099487	-0.035553	-0.08728	0.18204	-0.037689	-0.044098	-0.066833	0.070496	0.25146	0.042114	0.010986	-0.006714	0.025635	-0.000305	-0.027924	-0.056763	-0.002899	-0.022125
6.574	0.006866	0.013275	-0.017548	-0.00061	-0.021057	-0.49545	-0.40482	0.010529	0.14832	0.011902	-0.10468	-0.012054	0.051727	0.062561	0.17853	-0.031281	-0.12116	0.15976	-0.008545	-0.005188	-0.046997	0.073853	0.30975	0.053864	0.008087	-0.006714	-0.41351	-0.000458	-0.019836	0.009918	-0.002594	-0.021973
6.575	0.009155	0.06073	-0.058899	0.002136	0.017395	-0.51346	-0.392	0.00473	0.22858	-0.083771	-0.2182	0.016632	0.15228	0.10468	0.15488	-0.028076	-0.093689	0.16724	-0.085907	0.00412	-0.046692	0.083008	0.38711	0.018311	-0.001678	-0.001526	-0.36407	-0.004578	-0.033569	-0.068207	-0.001678	-0.003662
6.576	0.009003	0.077667	0.027618	-0.00351	-0.008087	-0.22186	-0.38315	0.001678	0.29831	-0.10254	-0.13321	0.03067	0.13123	0.13748	0.39978	-0.023804	-0.075226	0.16022	0.070343	0.018616	-0.039368	0.095062	0.35614	0.093536	0.007629	0.002289	0.3624	-0.002136	-0.004425	-0.11704	-0.001831	-0.006256
6.577	0.009003	0.16144	0.11292	0.004272	-0.054626	0.022888	-0.36835	-0.016785	0.053864	-0.10727	-0.10773	0.027161	0.011749	0.15915	0.33234	-0.047607	-0.065308	0.16296	0.21484	0.075989	-0.036621	0.10376	0.41046	0.075684	0.012665	-0.000458	0.67581	-0.008087	-0.035248	-0.006409	0.00351	-0.003967
6.578	0.005341	0.21942	0.1091	-0.004578	-0.04425	0.04776	-0.34912	-0.015411	-0.2533	-0.041504	-0.11093	-0.055542	-0.046997	0.20737	-0.057373	-0.026398	-0.022278	0.10651	0.000305	0.1416	-0.044861	0.016479	0.43289	0.10025	0.006714	-0.004578	0.55649	-0.005341	-0.13718	-0.005188	-0.002136	-0.01236
6.579	-0.00351	0.22201	0.068054	-0.00412	-0.043335	0.16632	-0.21408	-0.005798	-0.20294	0.002441	-0.046082	-0.014191	-0.067139	0.13031	-0.5661	-0.047607	-0.014038	0.049591	-0.2417	0.14603	-0.036621	0.002747	0.46967	0.076599	-0.010986	-0.003357	0.51056	-0.004578	-0.26276	0.054016	0.001221	-0.010834
6.58	-0.002136	0.22125	0.077667	-0.002594	0.019379	0.30731	-0.12436	-0.009003	-0.16083	0.002136	-0.050354	0.006256	-0.059052	-0.055389	-0.40131	-0.025024	-0.004425	0.032959	-0.22232	0.091553	-0.038757	0.010529	0.47226	0.018921	-0.014191	-0.00824	0.61737	-0.001221	-0.25345	0.057526	-0.002747	-0.012512
6.581	-0.004425	0.29419	0.084839	0.002594	0.010529	0.33081	-0.24674	-0.003815	-0.084686	0.031433	0.12253	0.000153	-0.007782	-0.024414	-0.21011	-0.020905	0.000305	0.075531	-0.24674	0.050507	-0.045929	0.036316	0.43655	-0.01709	-0.02594	-0.006714	0.31647	-0.003204	-0.086975	0.023499	-0.004578	-0.005341
6.582	-0.009308	0.26657	-0.014648	0.010529	-0.049438	0.2771	-0.21011	-0.005493	0.00061	0.044861	0.050049	-0.000916	0.016785	-0.023804	-0.19547	-0.00946	-0.002594	0.055542	-0.16907	0.033112	-0.054169	0.033722	0.38742	-0.010223	-0.018158	0.000153	0.38086	-0.004272	0.13062	-0.092316	-0.002594	-0.000458
6.583	0.002594	0.25314	-0.067444	0.009918	-0.046692	0.12924	-0.21286	0.003052	0.027771	0.022583	0.1622	0.000458	0.024719	-0.22003	-0.12543	-0.001373	0.040894	0.015869	0.12177	0.023804	-0.07309	0.048828	0.30807	-0.078888	-0.021973	-0.002136	0.34225	-0.007629	0.039978	-0.072937	-0.000458	-0.000458
6.584	0.003357	0.24628	-0.05188	0.01236	-0.036011	0.071106	-0.26688	0.018768	0.039673	-0.012054	0.13809	0.004425	0.088196	-0.24262	-0.046692	-0.038147	0.081024	-0.017395	-0.13565	0.028534	-0.088043	0.020142	0.29999	-0.087128	-0.00946	-0.008698	-0.11902	-0.004425	-0.024261	0.002136	0.000458	-0.019836
6.585	0.004272	0.24704	0.070496	0.000458	0.012207	-0.057526	-0.23956	0.005798	0.092621	-0.020447	-0.008545	0.007935	0.036621	-0.12451	-0.065918	-0.027466	0.1088	-0.04303	-0.38895	0.089111	-0.093384	0.029144	0.4361	-0.065155	-0.018768	-0.001831	-0.83847	-0.004578	0.054169	-0.024719	-0.001373	-0.011444
6.586	0.001526	0.2713	0.16068	0.002594	0.022583	-0.26047	-0.17914	0.008698	0.059357	-0.040283	-0.18692	0.003052	0.009003	-0.18539	-0.055389	-0.040283	0.14267	-0.042267	-0.41031	0.12665	-0.097504	0.006866	0.59311	-0.070038	-0.014954	-0.001526	-0.522	-0.002594	0.034027	-0.046692	-0.003052	-0.009308
6.587	-0.006866	0.21393	0.056458	0.00885	-0.013123	-0.3064	-0.024567	0.023651	-0.071411	-0.005951	-0.15488	0.006256	-0.006256	-0.13214	0.023346	-0.020294	0.13779	-0.088806	-0.2887	0.065765	-0.1062	0.010986	0.91095	-0.067902	-0.012817	0.004272	-0.040894	-0.002747	-0.080261	-0.073242	0.00061	-0.010681
6.588	-0.01358	0.24139	0.082245	0.002594	-0.054169	-0.1651	0.04837	0.029602	-0.19898	0.053406	-0.10361	0.034332	-0.005798	-0.1091	0.072479	0.044861	0.12466	-0.049744	-0.18646	0.065613	-0.11307	0.020905	0.98129	-0.020599	0.016479	0.005341	-0.058899	-0.002747	0.032654	-0.029297	-0.001526	-0.006256
6.589	-0.003204	0.29572	0.07431	0.014801	-0.031128	-0.12116	-0.025177	0.025024	-0.15961	0.04303	-0.053711	0.001373	0.023193	-0.029907	0.087891	0.043182	0.056305	0.034943	-0.064087	-0.036621	-0.10407	0.036621	0.90241	0.043945	0.043945	0.009003	0.14496	-0.000153	0.040436	0.023346	-0.00061	-0.003967
6.59	0.018921	0.27435	-0.019836	-0.008392	-0.022888	-0.10071	-0.12558	0.007019	-0.03418	0.023346	-0.061493	-0.015259	0.064545	0.11749	0.091705	0.007172	0.014496	0.016632	-0.088196	-0.10346	-0.077362	0.047607	0.78827	0.002899	0.054932	-0.005341	-0.079498	-0.003204	0.000763	0.037231	-0.006561	-0.007172
6.591	0.007019	0.27115	0.024109	-0.007782	-0.018158	0	-0.10803	0.007477	0.001068	0.024719	-0.03067	-0.045471	0.08194	0.20493	0.074921	0.005798	-0.012207	0.046692	-0.12344	-0.13763	-0.053101	0.083923	0.78964	-0.018463	0.058136	-0.008698	0.015869	-0.002136	-0.043182	-0.003052	-0.001984	-0.005493
6.592	0.010223	0.21332	-0.082703	0.004272	-0.024872	0.064697	-0.042725	-0.015564	0.075073	0.033875	0.014343	-0.003357	0.070343	-0.010223	0.079041	-0.001831	-0.006256	0.022125	-0.10407	-0.066376	-0.04776	0.080872	0.60715	-0.02182	0.030823	-0.012054	0.28458	-0.006409	-0.015411	0.031586	-0.008087	-0.009613
6.593	0.00946	0.14084	-0.054932	0.021362	-0.03479	0.098114	0.075378	-0.019379	0.11246	0.038757	0.042725	-0.000458	0.06897	-0.079956	0.079041	0.00351	-0.014038	0.05661	-0.17807	0.024414	-0.040131	0.078735	0.46539	-0.050812	0.032806	-0.015717	0.30212	-0.002747	-0.040588	0.072021	-0.006256	-0.010071
6.594	0.014191	0.12146	0.011444	-0.001678	-0.014648	0.10773	0.045929	-0.020142	0.12833	0.036011	0.027008	0.043488	0.05249	-0.10223	0.059052	-0.001373	-0.025024	0.048523	-0.2388	0.10437	-0.03952	0.082703	0.4631	-0.002289	0.040588	-0.003357	0.042572	-0.000153	0.019684	0.011139	-0.001068	-0.00885
6.595	0.015411	0.11581	-0.057068	-0.001678	-0.057373	0.19089	0.042114	-0.016479	0.15366	0.011902	0.007172	0.10544	0.052795	-0.0737	0.046387	0.002899	-0.02594	0.12512	-0.18555	0.14374	-0.047913	0.055237	0.28198	0.027618	0.037537	-0.001373	-0.19989	-0.004272	0.090332	-0.043335	-0.004883	-0.014648
6.596	0.017242	0.1152	-0.15778	0.019379	-0.08255	0.074921	0.059967	-0.011444	0.12268	-0.024567	0.005493	-0.1059	0.13473	0.00824	0.044098	0.007172	-0.013733	0.16144	-0.15778	0.15686	-0.050812	0.027008	0.2948	0.027771	0.035553	-0.00946	-0.38254	-0.004272	0.012207	0.006256	0.001984	-0.012665
6.597	0.013885	0.094757	-0.10956	0.032043	-0.059967	0.07309	0.013885	-0.006866	0.083008	-0.003052	0.011444	-0.036011	-0.08606	0.041199	0.045013	0.010223	-0.010223	0.20889	-0.15015	0.083466	-0.059967	0.047913	0.41412	0.024414	0.02243	-0.007324	-0.78323	-0.002289	-0.028687	0.033264	-0.002441	-0.010376
6.598	0.009308	0.097351	0.048065	0.021515	-0.003662	0.15167	-0.029449	-0.00946	0.10559	-0.001678	0.00351	-0.008545	-0.13077	0.088196	0.041962	0.01236	0.016785	0.20157	-0.041199	-0.036774	-0.066833	0.05249	0.5249	0.069122	0.017395	-0.007019	-0.32654	-0.001373	-0.09552	0.005188	0.000458	-0.018463
6.599	0.000305	0.12619	0.14038	0.014191	0.085754	0.18799	-0.055695	0.016479	0.063324	-0.013733	-0.00473	-0.00824	0.099182	0.058441	0.021973	-0.00351	0.037842	0.19272	-0.017548	-0.19058	-0.068665	0.055084	0.58395	0.10834	0.062103	-0.005188	-0.013275	-0.002289	-0.076294	-0.028992	-0.001526	-0.021667
6.6	-0.010681	0.11734	0.072479	-0.009003	0.027008	0.15335	-0.032959	0.021057	0.040894	-0.027466	0.005188	-0.009918	0.03891	-0.00473	0.023956	-0.009613	0.043335	0.17593	-0.095367	-0.22827	-0.077667	0.054016	0.52139	0.081787	0.056152	-0.001373	0.063629	-0.00351	-0.023499	-0.016479	0.002289	-0.023346
6.601	-0.019226	0.11581	0.13565	-0.019531	-0.11337	0.10178	-0.035858	0.011444	0.007782	-0.01297	0.004578	-0.005646	-0.051727	-0.031891	0.025635	-0.010986	0.014496	0.22263	0.032043	-0.14587	-0.091553	0.051575	0.39627	0.037842	0.040283	-0.001221	-0.024719	-0.001831	0.014191	-0.080414	0.001526	-0.028076
6.602	-0.007172	0.1738	0.029297	-0.013733	-0.20798	-0.006104	-0.040894	0.013275	0.018616	-0.029449	-0.001068	-0.00351	-0.043335	-0.015564	0.012054	-0.009613	0.011139	0.24445	-0.10284	-0.057831	-0.1181	0.050354	0.28809	0.00946	0.050659	-0.010376	-0.53253	-0.008698	-0.018005	-0.10223	-0.001221	-0.026703
6.603	0.006561	0.2034	-0.033722	-0.000458	-0.043182	-0.01297	0.014343	0.011597	0.011749	-0.010986	-0.013275	0.001221	0.032806	-0.028076	-0.003662	-0.00824	0.005188	0.23666	-0.000916	-0.10635	-0.12085	0.062866	0.17929	0.015869	0.059052	-0.008087	-0.24338	-0.004272	-0.001068	-0.10986	0.001068	-0.036621
6.604	0.012817	0.21805	0.001221	-0.011902	0.056458	0.028381	0.018616	0.014191	0.024261	-0.015259	0.008698	-0.000458	0.045776	-0.017853	0.005798	-0.001984	0.011749	0.18662	-0.038757	-0.11322	-0.13336	0.052795	0.20142	0.000153	0.061951	-0.009155	-0.019989	-0.003967	-0.061035	-0.10819	0	-0.036316
